<svg width="270" height="270" viewBox="0 0 270 270" fill="none" xmlns="http://www.w3.org/2000/svg">
<circle cx="10" cy="10" r="10" fill="#FF0000"/>
<circle cx="60" cy="10" r="10" fill="#FF0000"/>
<circle cx="110" cy="10" r="10" fill="#FF0000"/>
<circle cx="10" cy="60" r="10" fill="#FF0000"/>
<circle cx="60" cy="60" r="10" fill="#FF0000"/>
<circle cx="110" cy="60" r="10" fill="#FF0000"/>
<circle cx="10" cy="110" r="10" fill="#FF0000"/>
<circle cx="60" cy="110" r="10" fill="#FF0000"/>
<circle cx="110" cy="110" r="10" fill="#FF0000"/>
<circle cx="160" cy="10" r="10" fill="#F5EFEA"/>
<circle cx="210" cy="10" r="10" fill="#F5EFEA"/>
<circle cx="260" cy="10" r="10" fill="#F5EFEA"/>
<circle cx="160" cy="60" r="10" fill="#F5EFEA"/>
<circle cx="210" cy="60" r="10" fill="#F5EFEA"/>
<circle cx="260" cy="60" r="10" fill="#F5EFEA"/>
<circle cx="160" cy="110" r="10" fill="#F5EFEA"/>
<circle cx="210" cy="110" r="10" fill="#F5EFEA"/>
<circle cx="260" cy="110" r="10" fill="#F5EFEA"/>
<circle cx="10" cy="160" r="10" fill="#FF0000"/>
<circle cx="60" cy="160" r="10" fill="#FF0000"/>
<circle cx="110" cy="160" r="10" fill="#FF0000"/>
<circle cx="10" cy="210" r="10" fill="#FF0000"/>
<circle cx="60" cy="210" r="10" fill="#FF0000"/>
<circle cx="110" cy="210" r="10" fill="#FF0000"/>
<circle cx="10" cy="260" r="10" fill="#FF0000"/>
<circle cx="60" cy="260" r="10" fill="#FF0000"/>
<circle cx="110" cy="260" r="10" fill="#FF0000"/>
<circle cx="160" cy="160" r="10" fill="#F5EFEA"/>
<circle cx="210" cy="160" r="10" fill="#F5EFEA"/>
<circle cx="260" cy="160" r="10" fill="#F5EFEA"/>
<circle cx="160" cy="210" r="10" fill="#F5EFEA"/>
<circle cx="210" cy="210" r="10" fill="#F5EFEA"/>
<circle cx="260" cy="210" r="10" fill="#F5EFEA"/>
<circle cx="160" cy="260" r="10" fill="#F5EFEA"/>
<circle cx="210" cy="260" r="10" fill="#F5EFEA"/>
<circle cx="260" cy="260" r="10" fill="#F5EFEA"/>
</svg>
